HIERARCHY
ROOT joint_Root
{
	OFFSET 0.0 0.0 0.0
	CHANNELS 6 Xposition Yposition Zposition Zrotation Xrotation Yrotation 
	JOINT Hips
	{
		OFFSET 4.5925 91.4895 -427.239
		CHANNELS 6 Xposition Yposition Zposition Zrotation Xrotation Yrotation 
		JOINT Spine
		{
			OFFSET 15.7357 0.0 0.0
			CHANNELS 6 Xposition Yposition Zposition Zrotation Xrotation Yrotation 
			JOINT Chest
			{
				OFFSET 8.98455 -0.406207 0.0
				CHANNELS 6 Xposition Yposition Zposition Zrotation Xrotation Yrotation 
				JOINT Neck
				{
					OFFSET 16.3773 0.0 0.0
					CHANNELS 6 Xposition Yposition Zposition Zrotation Xrotation Yrotation 
					JOINT Head
					{
						OFFSET 6.45672 0.0 0.0
						CHANNELS 6 Xposition Yposition Zposition Zrotation Xrotation Yrotation 
						End Site
						{
							OFFSET 0.0 0.0 0.0
						}
					}
				}
				JOINT Shoulder_L
				{
					OFFSET 12.9942 -0.242716 4.98039
					CHANNELS 6 Xposition Yposition Zposition Zrotation Xrotation Yrotation 
					JOINT UpperArm_L
					{
						OFFSET 5.34809 0.0 0.0
						CHANNELS 6 Xposition Yposition Zposition Zrotation Xrotation Yrotation 
						JOINT LowerArm_L
						{
							OFFSET 24.3286 1.87007e-05 0.0
							CHANNELS 6 Xposition Yposition Zposition Zrotation Xrotation Yrotation 
							JOINT Hand_L
							{
								OFFSET 22.2916 0.0 0.0
								CHANNELS 6 Xposition Yposition Zposition Zrotation Xrotation Yrotation 
								End Site
								{
									OFFSET 0.0 0.0 0.0
								}
							}
						}
					}
				}
				JOINT Shoulder_R
				{
					OFFSET 12.9945 -0.242716 -4.98039
					CHANNELS 6 Xposition Yposition Zposition Zrotation Xrotation Yrotation 
					JOINT UpperArm_R
					{
						OFFSET -5.34813 0.0 0.0
						CHANNELS 6 Xposition Yposition Zposition Zrotation Xrotation Yrotation 
						JOINT LowerArm_R
						{
							OFFSET -24.3289 0.000322201 0.0
							CHANNELS 6 Xposition Yposition Zposition Zrotation Xrotation Yrotation 
							JOINT Hand_R
							{
								OFFSET -22.2915 -0.000108084 0.0
								CHANNELS 6 Xposition Yposition Zposition Zrotation Xrotation Yrotation 
								End Site
								{
									OFFSET 0.0 0.0 0.0
								}
							}
						}
					}
				}
			}
		}
		JOINT UpperLeg_L
		{
			OFFSET -2.19248 -6.46944 0.0
			CHANNELS 6 Xposition Yposition Zposition Zrotation Xrotation Yrotation 
			JOINT LowerLeg_L
			{
				OFFSET 39.0811 0.0 -1.23785e-05
				CHANNELS 6 Xposition Yposition Zposition Zrotation Xrotation Yrotation 
				JOINT Foot_L
				{
					OFFSET 40.9854 0.0 -1.26872e-05
					CHANNELS 6 Xposition Yposition Zposition Zrotation Xrotation Yrotation 
					JOINT Toes_L
					{
						OFFSET 11.7543 0.0 0.0
						CHANNELS 6 Xposition Yposition Zposition Zrotation Xrotation Yrotation 
						End Site
						{
							OFFSET 0.0 0.0 0.0
						}
					}
				}
			}
		}
		JOINT UpperLeg_R
		{
			OFFSET -2.19251 6.46944 0.0
			CHANNELS 6 Xposition Yposition Zposition Zrotation Xrotation Yrotation 
			JOINT LowerLeg_R
			{
				OFFSET -39.0811 -0.00228153 -0.0401928
				CHANNELS 6 Xposition Yposition Zposition Zrotation Xrotation Yrotation 
				JOINT Foot_R
				{
					OFFSET -40.9854 0.0 0.0
					CHANNELS 6 Xposition Yposition Zposition Zrotation Xrotation Yrotation 
					JOINT Toes_R
					{
						OFFSET -11.7543 0.0 0.0
						CHANNELS 6 Xposition Yposition Zposition Zrotation Xrotation Yrotation 
						End Site
						{
							OFFSET 0.0 0.0 0.0
						}
					}
				}
			}
		}
	}
}
MOTION
Frames:	6
Frame Time:	0.0333333
0.000000 0.000000 0.000000 0.000000 0.000000 -0.000000 -68.527800 90.053200 187.781000 98.383400 86.351900 -6.406430 15.735700 0.000005 -0.000001 107.090000 83.313500 -106.948000 8.984550 -0.406207 -0.000000 5.020930 3.918470 0.111470 16.377300 -0.000001 -0.000001 -0.377635 -4.433450 3.584460 6.456720 -0.000001 -0.000000 -9.045940 -7.123420 6.099120 12.994200 -0.242716 4.980390 -91.032100 2.994750 -70.974300 5.348090 -0.000007 -0.000001 -72.226500 23.459900 5.049170 24.328600 0.000019 0.000005 2.199930 33.205000 -4.012440 22.291600 -0.000001 0.000005 5.773770 5.079400 5.581340 12.994500 -0.242716 -4.980390 88.774500 8.255470 -81.526200 -5.348130 -0.000001 -0.000004 -56.732400 23.420800 -31.380600 -24.328900 0.000322 -0.000009 -2.422440 -4.175530 -30.145500 -22.291500 -0.000108 -0.000004 18.695700 5.379470 -2.281680 -2.192480 -6.469440 -0.000000 -178.426000 -7.717270 -25.140700 39.081100 -0.000007 -0.000012 0.048636 -0.030438 57.956000 40.985400 -0.000006 -0.000013 2.627250 -4.656190 -60.679900 11.754300 -0.000000 0.000003 -0.006193 -0.072583 -19.531000 -2.192510 6.469440 -0.000001 177.128000 12.876700 -179.000000 -39.081100 -0.002282 -0.040193 0.034841 -0.047664 33.498800 -40.985400 0.000008 0.000006 9.397690 8.576370 -72.875500 -11.754300 -0.000006 -0.000006 -0.027395 -0.205266 -24.976400
0.000000 0.000000 0.000000 0.000000 0.000000 -0.000000 -65.837300 90.361300 187.259000 92.082300 83.438800 -1.121630 15.735700 0.000005 -0.000001 111.575000 83.335100 -111.631000 8.984550 -0.406207 -0.000000 4.645980 4.894220 -0.310758 16.377300 -0.000001 -0.000001 -1.089390 -4.034620 3.288890 6.456720 -0.000001 -0.000000 -9.978960 -7.188010 5.429920 12.994200 -0.242716 4.980390 -90.883600 2.500040 -70.528800 5.348090 -0.000007 -0.000001 -71.299000 19.971300 8.893110 24.328600 0.000019 0.000005 2.176910 32.351300 -4.063210 22.291600 -0.000001 0.000005 7.490350 5.070430 5.783530 12.994500 -0.242716 -4.980390 88.992900 7.300830 -82.123900 -5.348130 -0.000001 -0.000004 -54.618900 23.678700 -35.896300 -24.328900 0.000322 -0.000009 -2.712600 -3.832860 -35.317500 -22.291500 -0.000108 -0.000004 19.465300 5.393530 -2.728230 -2.192480 -6.469440 -0.000000 -177.454000 -7.962650 -25.684900 39.081100 -0.000007 -0.000012 0.046574 -0.043253 47.114800 40.985400 -0.000006 -0.000013 0.691440 -4.250250 -60.980100 11.754300 -0.000000 0.000003 -0.005551 -0.066707 -19.291300 -2.192510 6.469440 -0.000001 176.049000 12.461800 -177.977000 -39.081100 -0.002282 -0.040193 0.033850 -0.048764 32.069100 -40.985400 0.000008 0.000006 9.896890 11.527700 -71.123800 -11.754300 -0.000006 -0.000006 -0.042641 -0.270470 -27.691300
0.000000 0.000000 0.000000 0.000000 0.000000 -0.000000 -62.984700 90.206700 186.787000 88.093800 81.056700 1.947820 15.735700 0.000005 -0.000001 114.704000 83.363500 -114.894000 8.984550 -0.406207 -0.000000 4.317850 5.543980 -0.587922 16.377300 -0.000001 -0.000001 -1.996870 -3.539900 3.040540 6.456720 -0.000001 -0.000000 -10.817200 -7.009810 4.886710 12.994200 -0.242716 4.980390 -90.669300 1.857210 -70.177800 5.348090 -0.000007 -0.000001 -70.423700 17.335600 12.154300 24.328600 0.000019 0.000005 2.483530 31.390100 -4.760040 22.291600 -0.000001 0.000005 8.402840 5.067060 5.858660 12.994500 -0.242716 -4.980390 89.143500 6.666710 -82.662200 -5.348130 -0.000001 -0.000004 -52.018900 23.733500 -39.648500 -24.328900 0.000322 -0.000009 -2.403150 -2.765060 -41.010300 -22.291500 -0.000108 -0.000004 20.390800 5.404760 -3.092540 -2.192480 -6.469440 -0.000000 -175.909000 -7.317020 -25.856900 39.081100 -0.000007 -0.000012 0.032793 -0.044102 36.632500 40.985400 -0.000006 -0.000013 0.266322 -2.896960 -60.763400 11.754300 -0.000000 0.000003 -0.005466 -0.065916 -19.259100 -2.192510 6.469440 -0.000001 175.163000 12.282600 -176.942000 -39.081100 -0.002282 -0.040193 0.030895 -0.045394 31.296000 -40.985400 0.000008 0.000006 10.113400 13.788700 -70.480700 -11.754300 -0.000006 -0.000006 -0.054677 -0.314062 -29.524700
0.000000 0.000000 0.000000 0.000000 0.000000 -0.000000 -59.739200 89.539700 186.288000 85.386000 79.084000 4.330610 15.735700 0.000005 -0.000001 116.544000 83.217400 -116.834000 8.984550 -0.406207 -0.000000 4.404810 6.060600 -0.813247 16.377300 -0.000001 -0.000001 -2.728000 -3.143730 2.872670 6.456720 -0.000001 -0.000000 -11.851400 -6.748600 4.349100 12.994200 -0.242716 4.980390 -90.422800 1.171270 -70.152400 5.348090 -0.000007 -0.000001 -69.806000 15.764500 14.466300 24.328600 0.000019 0.000005 2.556130 30.207200 -5.070470 22.291600 -0.000001 0.000005 8.634960 5.064690 5.911610 12.994500 -0.242716 -4.980390 89.238800 6.221920 -83.011200 -5.348130 -0.000001 -0.000004 -49.794500 23.185600 -42.532600 -24.328900 0.000322 -0.000009 -1.755970 -1.649230 -46.791700 -22.291500 -0.000108 -0.000004 21.215000 5.414750 -3.422950 -2.192480 -6.469440 -0.000000 -174.153000 -7.829370 -27.087900 39.081100 -0.000007 -0.000012 -0.127321 0.208912 31.360500 40.985400 -0.000006 -0.000013 -4.195620 0.234091 -58.955100 11.754300 -0.000000 0.000003 -0.005356 -0.064882 -19.216900 -2.192510 6.469440 -0.000001 174.205000 11.731100 -175.315000 -39.081100 -0.002282 -0.040193 0.026194 -0.037597 31.339300 -40.985400 0.000008 0.000006 10.171000 15.014500 -70.834500 -11.754300 -0.000006 -0.000006 -0.067679 -0.355959 -31.303200
0.000000 0.000000 0.000000 0.000000 0.000000 -0.000000 -56.118700 88.558500 185.540000 87.840100 77.944200 1.758420 15.735700 0.000005 -0.000001 116.066000 83.082400 -116.758000 8.984550 -0.406207 -0.000000 4.720570 6.086520 -1.635000 16.377300 -0.000001 -0.000001 -3.098580 -2.863000 2.771570 6.456720 -0.000001 -0.000000 -13.332300 -6.438890 4.011830 12.994200 -0.242716 4.980390 -90.413900 1.168310 -70.491300 5.348090 -0.000007 -0.000001 -68.852900 14.775800 15.585600 24.328600 0.000019 0.000005 2.255470 29.566300 -4.563540 22.291600 -0.000001 0.000005 9.208630 5.059010 6.037750 12.994500 -0.242716 -4.980390 89.231500 6.486630 -83.228700 -5.348130 -0.000001 -0.000004 -47.387700 22.199500 -44.703700 -24.328900 0.000322 -0.000009 -1.856600 -1.443140 -52.134900 -22.291500 -0.000108 -0.000004 21.968800 5.430980 -3.972570 -2.192480 -6.469440 -0.000000 -176.155000 -11.329800 -30.254600 39.081100 -0.000007 -0.000012 -0.016411 0.024519 33.797500 40.985400 -0.000006 -0.000013 -2.456020 2.804020 -56.084800 11.754300 -0.000000 0.000003 -0.004065 -0.052126 -18.697200 -2.192510 6.469440 -0.000001 172.479000 10.174500 -173.819000 -39.081100 -0.002282 -0.040193 0.024356 -0.033214 32.376800 -40.985400 0.000008 0.000006 9.944680 14.480800 -71.618500 -11.754300 -0.000006 -0.000006 -0.082732 -0.399517 -33.171600
0.000000 0.000000 0.000000 0.000000 0.000000 -0.000000 -51.735000 87.201800 184.646000 88.630600 77.334700 1.155290 15.735700 0.000005 -0.000001 114.761000 83.074100 -115.608000 8.984550 -0.406207 -0.000000 4.875970 5.811810 -1.941730 16.377300 -0.000001 -0.000001 -3.186360 -2.797500 2.717730 6.456720 -0.000001 -0.000000 -13.984900 -5.836500 3.376140 12.994200 -0.242716 4.980390 -90.574700 1.639270 -70.677800 5.348090 -0.000007 -0.000001 -68.164800 15.313500 15.448900 24.328600 0.000019 0.000005 1.287500 30.440500 -2.539940 22.291600 -0.000001 0.000005 9.616700 5.034790 6.570380 12.994500 -0.242716 -4.980390 89.235800 6.483340 -83.263000 -5.348130 -0.000001 -0.000004 -45.754500 21.651300 -45.777900 -24.328900 0.000322 -0.000009 -2.499290 -1.668450 -56.280300 -22.291500 -0.000108 -0.000004 22.723500 5.448810 -4.596880 -2.192480 -6.469440 -0.000000 -177.287000 -13.705500 -32.139100 39.081100 -0.000007 -0.000012 -0.094095 0.102254 42.621200 40.985400 -0.000006 -0.000013 -0.744456 4.518150 -60.587800 11.754300 -0.000000 0.000003 -0.001991 -0.028614 -17.740300 -2.192510 6.469440 -0.000001 171.293000 7.609040 -172.164000 -39.081100 -0.002282 -0.040193 0.032315 -0.042190 34.524300 -40.985400 0.000008 0.000006 9.311910 12.839100 -71.744000 -11.754300 -0.000006 -0.000006 -0.113830 -0.477649 -36.581400
